<svg xmlns="http://www.w3.org/2000/svg" x="0px" y="0px" width="100" height="100" viewBox="0,0,256,256">
<g transform="translate(-28.16,-28.16) scale(1.22,1.22)"><g fill="none" fill-rule="nonzero" stroke="none" stroke-width="none" stroke-linecap="none" stroke-linejoin="none" stroke-miterlimit="10" stroke-dasharray="" stroke-dashoffset="0" font-family="none" font-weight="none" font-size="none" text-anchor="none" style="mix-blend-mode: normal"><g transform="scale(4,4)"><path d="M13,7h38c3.314,0 6,2.686 6,6v38c0,3.314 -2.686,6 -6,6h-38c-3.314,0 -6,-2.686 -6,-6v-38c0,-3.314 2.686,-6 6,-6z" fill="#6e91ce" stroke="none" stroke-width="1" stroke-linecap="butt" stroke-linejoin="miter"></path><path d="M11,7h42c2.209,0 4,1.791 4,4v0c0,1.657 -1.343,3 -3,3h-44c-1.657,0 -3,-1.343 -3,-3v0c0,-2.209 1.791,-4 4,-4z" fill="#80a6dd" stroke="none" stroke-width="1" stroke-linecap="butt" stroke-linejoin="miter"></path><path d="M13,7h38c3.314,0 6,2.686 6,6v38c0,3.314 -2.686,6 -6,6h-38c-3.314,0 -6,-2.686 -6,-6v-38c0,-3.314 2.686,-6 6,-6z" fill="none" stroke="#201c22" stroke-width="2" stroke-linecap="butt" stroke-linejoin="miter"></path><g fill="none" stroke="#201c22" stroke-width="2" stroke-linecap="round" stroke-linejoin="round"><path d="M11.91,12.957v2"></path><path d="M16.93,12.957v2"></path><path d="M21.949,12.957v2"></path><path d="M26.969,12.957v2"></path><path d="M31.989,12.957v2"></path><path d="M37.009,12.957v2"></path><path d="M42.029,12.957v2"></path><path d="M47.049,12.957v2"></path><path d="M52.069,12.957v2"></path></g><g fill="#faefde" stroke="#201c22" stroke-width="2" stroke-linecap="round" stroke-linejoin="round"><path d="M42.537,28.654h4.739v-7.085c0,0 -7.349,-1.641 -11.202,0.957c-4.117,2.777 -4.074,7.229 -4.074,9.474v3h-7v7h7v15h7v-15h7l1,-7h-7.981c0.001,-0.689 -0.019,-1.655 -0.019,-3c0,-3.441 3.537,-3.346 3.537,-3.346z"></path></g></g></g></g>
</svg>