<svg xmlns="http://www.w3.org/2000/svg" x="0px" y="0px" width="100" height="100" viewBox="0,0,256,256">
    <g transform="translate(-1.28,-1.28) scale(1.01,1.01)"><g fill="none" fill-rule="nonzero" stroke="#0b0b0c" stroke-width="5.12" stroke-linecap="butt" stroke-linejoin="miter" stroke-miterlimit="10" stroke-dasharray="" stroke-dashoffset="0" font-family="none" font-weight="none" font-size="none" text-anchor="none" style="mix-blend-mode: normal"><path d="M32.03116,252.63486c-15.8318,0 -28.66602,-12.83421 -28.66602,-28.66602v-191.93768c0,-15.8318 12.83421,-28.66602 28.66602,-28.66602h191.93768c15.8318,0 28.66602,12.83421 28.66602,28.66602v191.93768c0,15.8318 -12.83421,28.66602 -28.66602,28.66602z" id="shape"></path></g><g fill="none" fill-rule="nonzero" stroke="none" stroke-width="1" stroke-linecap="butt" stroke-linejoin="miter" stroke-miterlimit="10" stroke-dasharray="" stroke-dashoffset="0" font-family="none" font-weight="none" font-size="none" text-anchor="none" style="mix-blend-mode: normal"><g transform="scale(2.56,2.56)"><path d="M89,26c0,0 -4.774,1.394 -9.157,1.491c-0.075,-0.191 -0.136,-0.388 -0.218,-0.576c5.394,-3.487 6.875,-7.915 6.875,-7.915c0,0 -5.276,2.871 -10.191,2.989c-2.997,-3.074 -7.177,-4.989 -11.809,-4.989c-9.113,0 -16.5,7.387 -16.5,16.5c0,1.514 0.221,2.973 0.603,4.365c-22.835,-1.49 -33.853,-15.724 -35.41,-17.865c-1.395,2.421 -2.193,5.505 -2.193,8.5c0,6.163 3.662,11.981 9,14.5c-6,0 -9,-2 -9,-2c0,8.502 6.627,15.486 15,16c-1.882,0.668 -3.889,1 -6,1c-0.907,0 -2.213,-0.074 -3.084,-0.203l0.084,0.203c2.669,6.311 9.747,10.797 17,11c-5.571,4.98 -13.44,8 -21.5,8h-1.5c6,4 14.111,6 22.5,6c26.234,0 47.5,-21.266 47.5,-47.5c0,0 -0.026,-2.441 -0.035,-2.662c5.035,-2.838 8.035,-6.838 8.035,-6.838z" fill="#78a1d1"></path><path d="M33.5,84c-8.901,0 -17.088,-2.19 -23.055,-6.168c-0.367,-0.244 -0.53,-0.7 -0.402,-1.122c0.127,-0.422 0.517,-0.71 0.957,-0.71h1.5c6.9,0 13.688,-2.247 18.981,-6.227c-6.783,-1.044 -12.906,-5.48 -15.402,-11.384l-0.087,-0.211c-0.137,-0.332 -0.085,-0.714 0.136,-0.997c0.221,-0.284 0.578,-0.426 0.935,-0.374c0.853,0.127 2.123,0.193 2.937,0.193c0.362,0 0.721,-0.011 1.077,-0.031c-6.49,-2.419 -11.077,-8.697 -11.077,-15.969c0,-0.369 0.203,-0.708 0.528,-0.882c0.324,-0.175 0.718,-0.156 1.026,0.05c0.018,0.011 1.556,0.992 4.572,1.513c-3.769,-3.184 -6.126,-8.084 -6.126,-13.181c0,-3.153 0.848,-6.434 2.327,-9c0.169,-0.293 0.475,-0.481 0.813,-0.499c0.345,-0.022 0.663,0.137 0.862,0.41c1.897,2.608 12.269,15.475 33.317,17.352c-0.212,-1.093 -0.319,-2.185 -0.319,-3.263c0,-9.649 7.851,-17.5 17.5,-17.5c4.6,0 8.917,1.762 12.206,4.972c4.49,-0.256 9.268,-2.824 9.316,-2.85c0.358,-0.195 0.804,-0.152 1.12,0.112c0.314,0.264 0.437,0.694 0.306,1.083c-0.057,0.169 -1.277,3.702 -5.326,7.015c3.434,-0.379 6.56,-1.281 6.598,-1.292c0.411,-0.119 0.856,0.037 1.103,0.391c0.245,0.354 0.236,0.825 -0.022,1.169c-0.123,0.164 -2.98,3.932 -7.825,6.809c0.012,0.8 0.025,2.081 0.025,2.081c-0.001,26.753 -21.758,48.51 -48.501,48.51zM14.605,77.935c5.256,2.637 11.829,4.065 18.895,4.065c25.641,0 46.5,-20.859 46.5,-46.5c0,0 -0.025,-2.404 -0.034,-2.623c-0.015,-0.375 0.182,-0.727 0.508,-0.911c2.363,-1.332 4.271,-2.943 5.601,-4.237c-1.757,0.356 -4.018,0.712 -6.209,0.761c-0.008,0 -0.016,0 -0.022,0c-0.41,0 -0.78,-0.251 -0.931,-0.634l-0.097,-0.261c-0.034,-0.094 -0.067,-0.189 -0.107,-0.281c-0.195,-0.449 -0.037,-0.974 0.374,-1.24c2.518,-1.627 4.136,-3.479 5.125,-4.923c-2.062,0.829 -5.004,1.768 -7.874,1.836c-0.313,0.024 -0.546,-0.102 -0.74,-0.301c-2.948,-3.021 -6.888,-4.686 -11.094,-4.686c-8.547,0 -15.5,6.953 -15.5,15.5c0,1.348 0.191,2.728 0.567,4.101c0.085,0.312 0.015,0.646 -0.189,0.896c-0.205,0.25 -0.525,0.382 -0.84,0.366c-20.368,-1.33 -31.542,-12.596 -35.164,-17.002c-0.882,2.016 -1.374,4.361 -1.374,6.639c0,5.753 3.386,11.217 8.427,13.596c0.423,0.2 0.651,0.667 0.549,1.123c-0.102,0.456 -0.508,0.781 -0.976,0.781c-3.725,0 -6.363,-0.743 -7.911,-1.359c0.783,7.179 6.639,12.911 13.972,13.361c0.475,0.029 0.863,0.388 0.929,0.858c0.066,0.47 -0.208,0.923 -0.656,1.082c-1.977,0.703 -4.108,1.058 -6.334,1.058c-0.395,0 -0.899,-0.014 -1.425,-0.044c2.875,5.211 9.012,8.864 15.453,9.044c0.41,0.012 0.771,0.271 0.911,0.656c0.141,0.385 0.033,0.816 -0.272,1.089c-5.366,4.797 -12.582,7.724 -20.062,8.19z" fill="#1f212b"></path><path d="M52.569,35c-0.256,0 -0.475,-0.196 -0.497,-0.457l-0.021,-0.218c-0.026,-0.276 -0.051,-0.553 -0.051,-0.825c0,-0.276 0.224,-0.5 0.5,-0.5c0.276,0 0.5,0.224 0.5,0.5c0,0.241 0.024,0.486 0.048,0.73l0.021,0.226c0.024,0.275 -0.18,0.518 -0.454,0.542c-0.015,0.002 -0.031,0.002 -0.046,0.002z" fill="#1f212b"></path><path d="M52.681,32c-0.028,0 -0.057,-0.002 -0.085,-0.007c-0.271,-0.046 -0.455,-0.305 -0.409,-0.577c0.185,-1.086 0.509,-2.138 0.965,-3.126c0.117,-0.251 0.415,-0.36 0.663,-0.245c0.251,0.116 0.36,0.413 0.245,0.664c-0.419,0.908 -0.718,1.875 -0.887,2.874c-0.042,0.245 -0.253,0.417 -0.492,0.417z" fill="#1f212b"></path><path d="M55.581,26c-0.119,0 -0.238,-0.042 -0.334,-0.128c-0.205,-0.185 -0.223,-0.5 -0.038,-0.706c2.377,-2.647 5.764,-4.166 9.291,-4.166c3.073,0 6.033,1.141 8.335,3.212c0.205,0.185 0.222,0.501 0.037,0.706c-0.187,0.206 -0.501,0.223 -0.707,0.037c-2.117,-1.905 -4.839,-2.955 -7.665,-2.955c-3.244,0 -6.359,1.397 -8.547,3.834c-0.099,0.11 -0.235,0.166 -0.372,0.166z" fill="#1f212b"></path><path d="M33.5,79c-0.205,0 -0.407,-0.008 -0.609,-0.016l-0.401,-0.014c-0.276,-0.006 -0.495,-0.234 -0.49,-0.51c0.006,-0.276 0.236,-0.474 0.51,-0.49l0.42,0.014c0.189,0.008 0.378,0.016 0.57,0.016c0.276,0 0.5,0.224 0.5,0.5c0,0.276 -0.224,0.5 -0.5,0.5z" fill="#1f212b"></path><path d="M47.5,76.647c-0.208,0 -0.401,-0.13 -0.473,-0.337c-0.09,-0.261 0.048,-0.546 0.31,-0.636c10.88,-3.758 19.9,-11.917 24.746,-22.385c0.116,-0.251 0.413,-0.36 0.664,-0.244c0.251,0.116 0.359,0.414 0.244,0.664c-4.96,10.714 -14.192,19.063 -25.328,22.91c-0.054,0.02 -0.109,0.028 -0.163,0.028z" fill="#1f212b"></path><path d="M36.5,78.884c-0.26,0 -0.48,-0.201 -0.499,-0.465c-0.019,-0.275 0.189,-0.515 0.464,-0.534c1.671,-0.116 3.333,-0.33 4.942,-0.634c0.272,-0.051 0.533,0.127 0.584,0.398c0.051,0.271 -0.127,0.533 -0.398,0.584c-1.646,0.312 -3.348,0.53 -5.058,0.649c-0.012,0.002 -0.024,0.002 -0.035,0.002z" fill="#1f212b"></path></g></g></g>
</svg>